<svg xmlns="http://www.w3.org/2000/svg" fill="currentColor" viewBox="0 0 24 24">
  <g>
    <path d="M12 1C8.146 1 5 4.146 5 8s3.146 7 7 7 7-3.146 7-7-3.146-7-7-7zm0 2c2.773 0 5 2.227 5 5s-2.227 5-5 5-5-2.227-5-5 2.227-5 5-5Z" />
    <path d="M8.688 11.904a1 1 0 0 0-1.15.82l-1.524 9.112a1 1 0 0 0 1.5 1.021L12 20.166l4.486 2.691a1 1 0 0 0 1.5-1.021l-1.523-9.111a1 1 0 0 0-1.15-.82 1 1 0 0 0-.823 1.15l1.166 6.972-3.142-1.884a1 1 0 0 0-1.028 0l-3.142 1.884 1.166-6.972a1 1 0 0 0-.822-1.15Z" />
  </g>
</svg>