<svg xmlns="http://www.w3.org/2000/svg" fill="currentColor" viewBox="0 0 24 24">
  <g>
    <path d="M4.5 3c-1.645 0-3 1.355-3 3v12c0 1.645 1.355 3 3 3h16c1.645 0 3-1.355 3-3V6c0-1.645-1.355-3-3-3zm0 2h16c.564 0 1 .436 1 1v12c0 .564-.436 1-1 1h-16c-.564 0-1-.436-1-1V6c0-.564.436-1 1-1z" transform="translate(-.5)"/>
    <path d="M2.283 6.023a1 1 0 0 0-.627.44 1 1 0 0 0 .307 1.38l8.97 5.702a1 1 0 0 0 .006.002 2.94 2.94 0 0 0 3.122 0 1 1 0 0 0 .005-.002l8.971-5.701a1 1 0 0 0 .307-1.381 1 1 0 0 0-1.381-.307l-8.969 5.7a.942.942 0 0 1-.988 0l-8.969-5.7a1 1 0 0 0-.754-.133Z" transform="translate(-.5)"/>
  </g>
</svg>