<svg xmlns="http://www.w3.org/2000/svg" fill="currentColor" viewBox="0 0 24 24">
  <path d="M4.61 1a2.999 2.999 0 0 0-2.985 3.27 1 1 0 0 0 0 .015 20.797 20.797 0 0 0 3.227 9.108v.002a20.5 20.5 0 0 0 6.302 6.298 20.791 20.791 0 0 0 9.059 3.221 1 1 0 0 0 .017.002 3 3 0 0 0 3.27-3v-2.97a3 3 0 0 0-2.58-3.046 1 1 0 0 0-.01-.002 11.828 11.828 0 0 1-2.588-.644h-.002a3 3 0 0 0-3.164.676 1 1 0 0 0-.004.004l-.658.658a14.911 14.911 0 0 1-4.586-4.586l.658-.658a1 1 0 0 0 .004-.004 3.003 3.003 0 0 0 .676-3.164v-.002a11.827 11.827 0 0 1-.644-2.588 1 1 0 0 0-.002-.01A3.002 3.002 0 0 0 7.6 1Zm0 2h3a1 1 0 0 0 .01 0 1 1 0 0 1 1 .86v-.008c.136 1.034.388 2.049.753 3.027a1 1 0 0 0 0 .002 1 1 0 0 1-.225 1.056L7.883 9.204a1 1 0 0 0-.162 1.201 17 17 0 0 0 6.375 6.375 1 1 0 0 0 1.2-.162l1.267-1.265a.999.999 0 0 1 .494-.268 1 1 0 0 0 .002 0 .993.993 0 0 1 .558.043 1 1 0 0 0 .004 0c.978.365 1.993.617 3.027.754h-.007a.998.998 0 0 1 .86 1.014 1 1 0 0 0 0 .025v3a1 1 0 0 0 0 .004.998.998 0 0 1-1.085 1 18.787 18.787 0 0 1-8.182-2.912 1 1 0 0 0-.007-.006 18.5 18.5 0 0 1-5.694-5.692 1 1 0 0 0-.004-.007A18.79 18.79 0 0 1 3.617 4.08.995.995 0 0 1 4.61 3Z" transform="translate(-.556 .036)"/>
</svg>