<svg xmlns="http://www.w3.org/2000/svg" fill="currentColor" viewBox="0 0 24 24">
  <path d="M24 4.542a9.842 9.842 0 0 1-2.827.776 4.946 4.946 0 0 0 2.164-2.73 9.816 9.816 0 0 1-3.126 1.196 4.922 4.922 0 0 0-5.92-.977 4.946 4.946 0 0 0-2.47 5.48A13.958 13.958 0 0 1 6.198 6.79 13.989 13.989 0 0 1 1.67 3.13a4.942 4.942 0 0 0-.666 2.48 4.946 4.946 0 0 0 2.19 4.11 4.903 4.903 0 0 1-2.23-.618v.063c0 1.14.393 2.244 1.113 3.127a4.924 4.924 0 0 0 2.837 1.713 4.948 4.948 0 0 1-2.224.084c.315.981.927 1.839 1.752 2.453.825.614 1.82.955 2.848.974a9.866 9.866 0 0 1-6.116 2.113c-.392 0-.785-.023-1.175-.069a13.902 13.902 0 0 0 7.547 2.218c9.058 0 14.01-7.52 14.01-14.042a14.8 14.8 0 0 0-.015-.638 10.023 10.023 0 0 0 2.456-2.553Z"/>
</svg>